<?xml version="1.0" encoding="UTF-8" standalone="no"?>
<svg width="854px" height="633px" viewBox="0 0 854 633" version="1.1" xmlns="http://www.w3.org/2000/svg" xmlns:xlink="http://www.w3.org/1999/xlink" xmlns:sketch="http://www.bohemiancoding.com/sketch/ns">
    <title>Starburst</title>
    <description>Created with Sketch (http://www.bohemiancoding.com/sketch)</description>
    <defs></defs>
    <g id="Page 1" stroke="none" stroke-width="1" fill="none" fill-rule="evenodd">
        <g id="Group" transform="translate(427.200000, 316.200000) scale(1, -1) translate(-427.200000, -316.200000) translate(0.200000, -0.300000)" fill="#FFFFFF">
            <path d="M423.5,629.1 C426.6,627.3 428.4,625.3 430.4,621.1 C432.9,616 433,615.3 431.8,611.4 C430.1,605.7 424.3,600 419.3,599.2 C417.1,598.8 414.8,598.4 414.2,598.2 C413.5,598 412.8,593.2 412.4,586 C412,579.5 411.5,572.6 411.3,570.7 C411.1,568.8 410.7,562.3 410.3,556.2 C410,550.2 409.3,539.4 408.7,532.2 C408.2,525.1 407.6,515.8 407.3,511.7 C405.3,481.8 404.7,472.6 404.3,468.2 C404.1,465.5 403.6,458.3 403.3,452.2 C403,446.2 402.5,439.4 402.3,437.2 C402.1,435 401.6,429.4 401.3,424.7 C400.5,411.4 397.9,372 397.3,363.7 C395.3,335.2 394.7,326.4 394.2,320.4 L393.6,313.5 L400,317 C405.6,320.1 446.5,341.6 480.8,359.5 C487.7,363 496.5,367.7 500.3,369.7 C508.9,374.3 513.8,376.9 575.3,409.2 C633.5,439.7 661.8,454.6 671.3,459.7 C675.2,461.7 694.1,471.7 713.3,481.7 C760.6,506.5 756.2,503.8 756.5,508 C757.1,518.4 768.3,526.7 777.8,523.8 C785.7,521.4 791,514.8 791,507.1 C791,495.7 778.9,487.9 768,492.2 C764.1,493.8 758.6,498.9 757.6,501.8 C757.2,502.9 734.7,488.5 602.3,402.3 C586.9,392.2 546.4,365.9 512.3,343.7 C478.2,321.5 443.2,298.8 434.6,293.1 C426,287.4 417.9,282.3 416.6,281.6 C414.4,280.4 414.4,280.4 416.3,279.5 C417.4,279.1 508.5,256.2 618.8,228.8 L819.3,178.9 L823.4,182.7 C829,187.8 834.5,189.5 840.5,187.8 C847,186.1 850.4,183.4 852.4,178.2 C858.5,162.2 840.9,148.4 826.8,158.2 C822.1,161.4 818.4,168.4 819,172.8 C819.4,175.2 819.1,175.8 817.4,176.2 C816.2,176.5 772.3,183.9 719.8,192.6 C667.3,201.4 586.5,214.9 540.3,222.7 C413.1,244.1 411.3,244.4 411,243.6 C410.9,243.3 427.7,195.6 448.5,137.7 L486.2,32.5 L490.1,33.1 C495.1,33.9 501.2,31.2 505.5,26.4 C511.2,19.9 511.1,12.2 505.1,5.6 C500.9,0.9 495.9,-0.6 488.6,0.3 C475.4,2 470.6,17.4 480,27.4 C482.5,30 482.8,28.9 474.5,44.2 C466.4,59.3 452.9,84.3 415.3,154.7 C394.5,193.5 377.5,225.3 377.4,225.4 C377.3,225.5 369.9,216.5 360.8,205.4 C351.8,194.3 324.7,161 300.5,131.4 L256.7,77.6 L259.7,74.2 C263.7,69.7 264.5,64.9 262.4,59.2 C258.9,50.2 249.8,45.4 241.7,48.2 C235.2,50.5 232.8,52.4 230.7,57 C228.2,62.6 228.3,68.1 231,72.8 C233.9,78 239.6,80.7 249.1,81.4 L256.4,82 L271.3,109.6 C279.5,124.8 292.4,148.9 300.1,163.2 C307.7,177.5 315.3,191.5 316.8,194.2 C319.2,198.6 341.6,240.5 344.7,246.5 C345.9,248.7 345.8,248.7 342.1,248.3 C340,248 307.7,247.5 270.3,247.2 C232.9,246.9 172.6,246.2 136.3,245.7 C100,245.2 62.3,244.7 52.6,244.7 L35,244.7 L34.3,241.7 C32.8,234.8 25.6,229.7 17.6,229.7 C5.5,229.8 -2.5,240 0.8,251 C2.3,256.2 6.1,259.9 12.1,262.2 C16.7,263.9 17.2,263.9 22.3,262.3 C28,260.5 33.3,255.7 34.4,251.1 C35,248.8 35.5,248.6 38.2,249.1 C39.9,249.4 46.7,250.3 53.3,251.1 C59.9,252 73.9,253.8 84.3,255.2 C103.8,257.8 132.5,261.6 152.8,264.2 C173.1,266.9 179.1,267.7 189.8,269.2 C195.6,270 209.1,271.8 219.8,273.1 C230.5,274.5 247.6,276.8 257.8,278.1 C268,279.4 289.1,282.2 304.8,284.3 C320.5,286.3 333.7,288.4 334.1,288.7 C334.6,289.1 314.1,316.2 288.7,348.8 C263.2,381.5 230.5,423.5 215.9,442.2 C201.3,460.9 182.5,485.1 174,495.9 C159.3,514.9 158.6,515.6 156.5,514.3 C148.5,509.3 140.8,510.3 134.1,517.2 C127.8,523.9 127.2,531.4 132.5,537.8 C142,549.1 160.1,545.7 164.3,531.9 C165.3,528.5 164.1,523.4 161.4,519.4 L159,515.9 L262.4,415.5 C319.3,360.3 366.2,315.1 366.7,314.9 C367.1,314.8 368.7,322.7 370.2,332.4 C373.7,355.3 378.5,385.5 379.8,393.2 C380.4,396.5 383.1,413.8 385.8,431.7 C388.6,449.6 391.7,469.6 392.8,476.2 C395,489.8 402.9,539.8 408.3,574.7 C410.5,588.6 411.6,598.3 411,598.5 C399.4,602.3 394.5,612.4 399.4,622.3 C401.6,626.6 404.8,629.2 410.4,631.2 C415,632.8 417.7,632.4 423.5,629.1 L423.5,629.1 Z M423.5,629.1" id="Shape"></path>
        </g>
    </g>
</svg>
