<svg xmlns="http://www.w3.org/2000/svg" xmlns:xlink="http://www.w3.org/1999/xlink" version="1.1" id="Layer_1" x="0px" y="0px" width="100px" height="100px" viewBox="0 0 100 100" enable-background="new 0 0 100 100" xml:space="preserve">
<path d="M75.408,93.754c-0.115-0.517-0.683-1.011-1.643-1.472c-0.362-2.297-9.197-4.174-20.603-4.472V52.197h1.086V45.27h-1.633  v-5.276c2.409,1.571,5.948,1.081,8.422-1.339l7.395-7.233c2.802-2.738,3.171-6.901,0.829-9.296l-2.614-2.671l-7.666,7.497  l-2.121-2.17l7.667-7.497l-2.106-2.153l-7.682,7.512l-2.123-2.167l7.684-7.514l-2.12-2.17l-7.684,7.514l-2.121-2.17l7.681-7.514  l-2.12-2.168l-7.682,7.513l-2.122-2.17l7.684-7.513L49.218,1.63c-2.344-2.396-6.514-2.119-9.314,0.62l-7.395,7.231  c-2.8,2.74-3.17,6.902-0.827,9.297l2.581,2.639l7.744-7.573l2.121,2.168l-7.744,7.573l2.122,2.17l7.744-7.573l2.122,2.168  l-7.745,7.575l2.122,2.168l4.634-4.532v4.243l-2.514,2.459l2.121,2.168l0.393-0.384V45.27h-1.632v6.927h1.088v35.614  c-11.405,0.298-20.24,2.173-20.604,4.472c-0.96,0.46-1.529,0.955-1.644,1.472c-1.042,0.495-1.639,1.027-1.639,1.585  C22.953,97.915,35.062,100,50,100c14.937,0,27.047-2.086,27.047-4.661C77.047,94.782,76.451,94.25,75.408,93.754z M52.616,28.932  l2.12-2.072l2.12,2.168l-4.24,4.147V28.932z M50.493,22.521l0.032,0.033h-0.065L50.493,22.521z"/>
</svg>