<svg xmlns="http://www.w3.org/2000/svg" xmlns:xlink="http://www.w3.org/1999/xlink" version="1.1" id="Your_Icon" x="0px" y="0px" width="100px" height="100px" viewBox="0 0 100 100" enable-background="new 0 0 100 100" xml:space="preserve">
<path fill="#000000" d="M80.199,69.878c0,3.541-2.879,6.28-6.42,6.28c-0.006,0-47.549,0-47.552,0c-3.544,0-6.427-2.739-6.427-6.28  l-5.666-49.853c0,0,11.164-3.165,17.521-3.165c3.646,0,28.128,6.56,35.082,6.56c6.955,0,19.135-3.395,19.135-3.395L80.199,69.878z   M56.193,49.082c0.918-2.42-0.299-5.125-2.721-6.042l-18.387-6.952c-2.42-0.915-5.122,0.306-6.04,2.729l-6.952,18.381  c-0.915,2.423,0.303,5.125,2.726,6.043l18.38,6.954c2.423,0.918,5.13-0.303,6.045-2.728L56.193,49.082z M79.631,49.945L75.27,30.781  c-0.574-2.523-3.082-4.104-5.604-3.53L50.5,31.618c-1.603,0.363-2.818,1.505-3.346,2.937l8.333,3.151  c5.357,2.027,8.07,8.035,6.043,13.394l-3.217,8.508l17.791-4.045C78.625,54.982,80.207,52.475,79.631,49.945z M20.458,82.574  c-3.541,0-6.424-2.739-6.424-6.283L6.416,8.802c0-1.771-1.438-3.206-3.211-3.206C1.438,5.596,0,7.031,0,8.802l6.711,80.188  c0,3.544,2.873,6.416,6.414,6.416h73.754c3.541,0,6.416-2.872,6.416-6.416L100,8.802c0-1.771-1.436-3.206-3.207-3.206  c-1.77,0-3.207,1.435-3.207,3.206l-7.617,67.489c0,3.544-2.881,6.283-6.424,6.283H20.458z"/>
</svg>