<?xml version="1.0" encoding="iso-8859-1"?>
<!-- Generator: Adobe Illustrator 15.0.0, SVG Export Plug-In . SVG Version: 6.00 Build 0)  -->
<!DOCTYPE svg PUBLIC "-//W3C//DTD SVG 1.1//EN" "http://www.w3.org/Graphics/SVG/1.1/DTD/svg11.dtd">
<svg version="1.1" id="Icons" xmlns="http://www.w3.org/2000/svg" xmlns:xlink="http://www.w3.org/1999/xlink" x="0px" y="0px"
	 width="100px" height="100px" viewBox="0 0 100 100" style="enable-background:new 0 0 100 100;" xml:space="preserve">
<path id="Github__x28_alt_x29_" d="M70.709,15.029c1.17,2.657,1.928,7.07,0.797,10.301c4.625,3.949,6.214,13.549,3.982,21.394
	C82.08,47.227,89.931,46.482,95,48.505c-4.738-0.609-11.209-1.804-17.32-1.388c-1.158,0.079-2.874-0.044-2.79,1.585
	c7.075,0.556,14.104,1.16,19.913,2.973c-5.761-0.941-12.754-2.374-19.913-2.574c-2.957,5.835-8.907,8.703-17.122,9.307
	c0.883,1.921,2.574,2.653,2.987,5.744c0.616,4.618-0.964,11.381,0.595,14.459c0.748,1.475,1.967,1.514,2.789,2.775
	c-2.012,2.381-7.001-0.267-7.568-2.775c-0.973-4.295,1.482-10.954-1.193-13.865c0.189,4.684-1.108,11.264,0.199,15.449
	c0.515,1.646,2.002,2.281,1.593,3.765c-9.352,0.95-5.444-12.104-6.972-19.809c-1.411,0.1-0.791,2.113-0.796,2.972
	c-0.04,7.524,1.54,17.844-6.57,16.837c-0.237-1.581,1.088-2.119,1.593-3.563c1.479-4.234-0.277-10.542,0.401-15.651
	c-3.095,2.333,0.325,10.48-1.593,14.657c-1.105,2.404-4.666,3.45-7.367,2.377c0.352-1.79,2.2-1.501,2.984-3.169
	c1.096-2.325,0.008-5.674,0.399-9.111c-5.729,1.143-10.173-0.166-12.348-3.764c-0.973-1.615-1.214-3.52-2.39-4.951
	c-1.17-1.432-3.04-1.625-3.582-3.564c7.095-1.708,7.367,7.302,13.739,7.525c1.954,0.071,2.97-0.564,4.778-0.989
	c0.506-2.272,1.589-3.966,3.186-5.153c-7.929-1.085-14.477-3.554-17.522-9.504c-7.208,0.355-13.804,1.317-19.913,2.771
	c5.545-2.014,12.384-2.736,19.715-2.973c-0.432-2.596-4.219-1.882-6.57-1.782C13.973,47.31,8.473,47.853,5,48.505
	c5.034-1.795,12.098-1.571,18.918-1.585c-2.086-6.54-1.363-16.929,3.186-20.798c-1.289-3.249-0.889-8.563,0.796-11.093
	c5.079,0.228,8.159,2.443,11.35,4.557c3.957-1.125,8.118-1.685,13.54-1.387c2.28,0.126,4.652,1.151,6.369,0.989
	c1.685-0.158,3.542-2.049,5.178-2.771C66.468,15.476,68.271,15.117,70.709,15.029z"/>
</svg>
