<?xml version="1.0" encoding="UTF-8" standalone="no"?>
<svg
   xmlns:dc="http://purl.org/dc/elements/1.1/"
   xmlns:cc="http://creativecommons.org/ns#"
   xmlns:rdf="http://www.w3.org/1999/02/22-rdf-syntax-ns#"
   xmlns:svg="http://www.w3.org/2000/svg"
   xmlns="http://www.w3.org/2000/svg"
   xmlns:sodipodi="http://sodipodi.sourceforge.net/DTD/sodipodi-0.dtd"
   xmlns:inkscape="http://www.inkscape.org/namespaces/inkscape"
   version="1.1"
   width="240"
   height="240"
   id="svg2"
   xml:space="preserve"
   inkscape:version="0.48.2 r9819"
   sodipodi:docname="ratpack-logo.svg"><sodipodi:namedview
   pagecolor="#ffffff"
   bordercolor="#666666"
   borderopacity="1"
   objecttolerance="10"
   gridtolerance="10"
   guidetolerance="10"
   inkscape:pageopacity="0"
   inkscape:pageshadow="2"
   inkscape:window-width="1440"
   inkscape:window-height="852"
   id="namedview3063"
   showgrid="false"
   inkscape:zoom="2.261616"
   inkscape:cx="117.30705"
   inkscape:cy="86.91886"
   inkscape:window-x="2008"
   inkscape:window-y="82"
   inkscape:window-maximized="0"
   inkscape:current-layer="svg2" />
   <metadata
   id="metadata8">
      <rdf:RDF>
         <cc:Work
   rdf:about="">
            <dc:format>image/svg+xml</dc:format>
            <dc:type
   rdf:resource="http://purl.org/dc/dcmitype/StillImage" />
         </cc:Work>
      </rdf:RDF>
   </metadata>
   <defs
   id="defs6" />
   <g
   transform="matrix(1.1574058,0.0809337,0.08444494,-1.2076189,-0.643762,389.84421)"
   id="g10"
   style="fill:#222222">
      <g
   transform="scale(0.1,0.1)"
   id="g12"
   style="fill:#222222">
         <path
   d="m 1669.73,2900.89 c 36.41,-5.36 -413.93,-3.31 -682.972,-43.82 -495.996,-74.69 -893.0705,-175.19 -883.754,-246.86 9.316,-71.67 420.094,-77.34 917.496,-12.67 222.61,28.94 733.91,147.56 579.51,106.79 C 893.75,2517.84 36.7383,2453.31 1.58203,2590.03 -33.5742,2726.75 525.02,2836.12 962.52,2886.9 c 0,0 354.77,47.32 707.21,13.99"
   inkscape:connector-curvature="0"
   id="path14"
   style="fill:#222222;fill-opacity:1;fill-rule:nonzero;stroke:none" />
         <path
   d="M 54.1914,2500.06 974.141,1694.25 c 0,0 3.332,-3.34 7.5,0.83 4.16,4.17 -1.668,5 -5,10 0,0 -610.84,606.67 -803.34,761.67 0,0 -55.43,51.38 -109.176,55.79 0,0 -15.418,-0.45 -17.1797,-6.61 -1.7656,-6.17 4.7969,-13.22 7.2461,-15.87"
   inkscape:connector-curvature="0"
   id="path16"
   style="fill:#222222;fill-opacity:1;fill-rule:nonzero;stroke:none" />
         <path
   d="m 1140.8,217.578 c -28.5,170.559 -70,1388.332 -71.66,1403.332 -1.67,15 10,36.67 10,36.67 l 546.02,928.07 c 0,0 9.33,15.19 4.47,17.13 -4.86,1.94 -12.16,-10.2 -12.16,-10.2 0,0 -360,-529.99 -553.33,-883.33 0,0 -18.34,-38.34 -61.67,-48.34 0,0 -9.482,-1.97 -5.575,-17.91 3.905,-15.94 39.675,-853.586 18.905,-1433.754 0,0 -4.75,-17.527 13.93,-22.723 18.69,-5.195 66.42,-9.355 94.45,3.106 0,0 19.76,9.187 16.62,27.949"
   inkscape:connector-curvature="0"
   id="path18"
   style="fill:#222222;fill-opacity:1;fill-rule:nonzero;stroke:none" />
         <path
   d="M 1575.38,203.574 C 1578.7,102.559 1360.51,11.9258 1086.52,1.07422 812.523,-9.78516 587.164,63.293 583.164,164.285 c -4,100.988 214.875,191.645 488.866,202.5 109.27,4.328 210.81,-4.695 293.65,-23.515 0,0 2.91,-0.907 2.44,-2.594 -0.45,-1.699 -1.99,-2.016 -4.14,-1.699 -2.17,0.3 -182.09,24.121 -297.95,12.871 C 950.148,340.598 625.023,293.34 622.773,170.715 620.523,48.0977 963.645,19.9727 1087.39,27.8438 c 123.75,7.871 456.76,42.7539 478.13,172.1292 0,0 0.14,6.882 3.09,7.449 2.96,0.555 6.66,-0.086 6.77,-3.848"
   inkscape:connector-curvature="0"
   id="path20"
   style="fill:#222222;fill-opacity:1;fill-rule:nonzero;stroke:none" />
         <path
   d="m 83.3984,3153.71 c 0,0 390.7346,-686.12 737.4026,-1179.46 0,0 4.043,-3.84 6.695,-2.18 2.652,1.65 0.992,4.31 -1.328,9.28 -2.32,4.97 -612.766,947.36 -729.4336,1180.7 0,0 -4.4297,11.56 -13.8047,9.22 -9.375,-2.35 0.4687,-16.68 0.4687,-17.56"
   inkscape:connector-curvature="0"
   id="path36"
   style="fill:#222222;fill-opacity:1;fill-rule:nonzero;stroke:none" />
         <path
   d="m 298.625,2971.93 c 2.621,0.25 3.578,-2.97 3.578,-2.97 3.516,-33.94 -22.754,-62.63 -62.441,-83.24 -47.836,-20.99 -98.946,-9.89 -114.153,24.77 -15.199,34.67 11.254,79.78 59.094,100.76 37.559,14.77 81.723,15.84 103.211,-7.03 0,0 2.043,-3.47 -0.629,-4.65 l 11.832,5.2 c 0,0 3.055,1.33 4.395,-1.72 1.332,-3.05 7.722,-21.49 7.722,-21.49 0,0 1.516,-3.43 -1.16,-4.6 l -11.449,-5.03"
   inkscape:connector-curvature="0"
   id="path38"
   style="fill:#222222;fill-opacity:1;fill-rule:nonzero;stroke:none" />
      </g>
   </g>
</svg>