<?xml version="1.0" standalone="no"?>
<!DOCTYPE svg PUBLIC "-//W3C//DTD SVG 20010904//EN"
 "http://www.w3.org/TR/2001/REC-SVG-20010904/DTD/svg10.dtd">
<svg version="1.0" xmlns="http://www.w3.org/2000/svg"
 width="926.000000pt" height="753.000000pt" viewBox="0 0 926.000000 753.000000"
 preserveAspectRatio="xMidYMid meet">
<metadata>
Created by potrace 1.11, written by Peter Selinger 2001-2013
</metadata>
<g transform="translate(0.000000,753.000000) scale(0.100000,-0.100000)"
stroke="none">
<path fill="#ffffff" stroke="none" d="M4737 6944 c31 -18 49 -38 69 -80 25
-51 26 -58 14 -97 -17 -57 -75 -114 -125 -122 -22 -4 -45 -8 -51 -10 -7 -2
-14 -50 -18 -122 -4 -65 -9 -134 -11 -153 -2 -19 -6 -84 -10 -145 -3 -60 -10
-168 -16 -240 -5 -71 -11 -164 -14 -205 -20 -299 -26 -391 -30 -435 -2 -27 -7
-99 -10 -160 -3 -60 -8 -128 -10 -150 -2 -22 -7 -78 -10 -125 -8 -133 -34
-527 -40 -610 -20 -285 -26 -373 -31 -433 l-6 -69 64 35 c56 31 465 246 808
425 69 35 157 82 195 102 86 46 135 72 750 395 582 305 865 454 960 505 39 20
228 120 420 220 473 248 429 221 432 263 6 104 118 187 213 158 79 -24 132
-90 132 -167 0 -114 -121 -192 -230 -149 -39 16 -94 67 -104 96 -4 11 -229
-133 -1553 -995 -154 -101 -559 -364 -900 -586 -341 -222 -691 -449 -777 -506
-86 -57 -167 -108 -180 -115 -22 -12 -22 -12 -3 -21 11 -4 922 -233 2025 -507
l2005 -499 41 38 c56 51 111 68 171 51 65 -17 99 -44 119 -96 61 -160 -115
-298 -256 -200 -47 32 -84 102 -78 146 4 24 1 30 -16 34 -12 3 -451 77 -976
164 -525 88 -1333 223 -1795 301 -1272 214 -1290 217 -1293 209 -1 -3 167
-480 375 -1059 l377 -1052 39 6 c50 8 111 -19 154 -67 57 -65 56 -142 -4 -208
-42 -47 -92 -62 -165 -53 -132 17 -180 171 -86 271 25 26 28 15 -55 168 -81
151 -216 401 -592 1105 -208 388 -378 706 -379 707 -1 1 -75 -89 -166 -200
-90 -111 -361 -444 -603 -740 l-438 -538 30 -34 c40 -45 48 -93 27 -150 -35
-90 -126 -138 -207 -110 -65 23 -89 42 -110 88 -25 56 -24 111 3 158 29 52 86
79 181 86 l73 6 149 276 c82 152 211 393 288 536 76 143 152 283 167 310 24
44 248 463 279 523 12 22 11 22 -26 18 -21 -3 -344 -8 -718 -11 -374 -3 -977
-10 -1340 -15 -363 -5 -740 -10 -837 -10 l-176 0 -7 -30 c-15 -69 -87 -120
-167 -120 -121 1 -201 103 -168 213 15 52 53 89 113 112 46 17 51 17 102 1 57
-18 110 -66 121 -112 6 -23 11 -25 38 -20 17 3 85 12 151 20 66 9 206 27 310
41 195 26 482 64 685 90 203 27 263 35 370 50 58 8 193 26 300 39 107 14 278
37 380 50 102 13 313 41 470 62 157 20 289 41 293 44 5 4 -200 275 -454 601
-255 327 -582 747 -728 934 -146 187 -334 429 -419 537 -147 190 -154 197
-175 184 -80 -50 -157 -40 -224 29 -63 67 -69 142 -16 206 95 113 276 79 318
-59 10 -34 -2 -85 -29 -125 l-24 -35 1034 -1004 c569 -552 1038 -1004 1043
-1006 4 -1 20 78 35 175 35 229 83 531 96 608 6 33 33 206 60 385 28 179 59
379 70 445 22 136 101 636 155 985 22 139 33 236 27 238 -116 38 -165 139
-116 238 22 43 54 69 110 89 46 16 73 12 131 -21z"/>
</g>
</svg>
